<?xml version="1.0" encoding="UTF-8" standalone="no"?>
<svg
   xmlns:dc="http://purl.org/dc/elements/1.1/"
   xmlns:cc="http://creativecommons.org/ns#"
   xmlns:rdf="http://www.w3.org/1999/02/22-rdf-syntax-ns#"
   xmlns:svg="http://www.w3.org/2000/svg"
   xmlns="http://www.w3.org/2000/svg"
   version="1.1"
   id="svg"
   viewBox="0 0 744.09448819 1052.3622047"
   height="250mm"
   width="225mm">
  <defs
     id="defs4" />
  <metadata
     id="metadata7">
    <rdf:RDF>
      <cc:Work
         rdf:about="">
        <dc:format>image/svg+xml</dc:format>
        <dc:type
           rdf:resource="http://purl.org/dc/dcmitype/StillImage" />
        <dc:title></dc:title>
      </cc:Work>
    </rdf:RDF>
  </metadata>
  <rect
     ry="38.025337"
     rx="210.66913"
     y="143.93497"
     x="135.85846"
     height="156.85451"
     width="126.85452"
     id="maceracion"
     topico="/PM/Brewery/Maceracion"
     style="opacity:1;fill:#575764;fill-opacity:1;stroke:#00e300;stroke-width:1.28834605;stroke-opacity:1" />
  <rect
     style="opacity:1;fill:#575764;fill-opacity:1;stroke:#00e300;stroke-width:1.28834605;stroke-opacity:1"
     id="agotamiento"
     topico="/PM/Brewery/agotamiento"
     width="126.85452"
     height="156.85451"
     x="418.71564"
     y="141.07782"
     rx="210.66913"
     ry="38.025337" />
  <rect
     ry="38.025337"
     rx="210.66913"
     y="141.07782"
     x="580.14417"
     height="156.85451"
     width="126.85452"
     id="lupulizacion"
     topico="/PM/Brewery/Lupulizacion"
     style="opacity:1;fill:#575764;fill-opacity:1;stroke:#00e300;stroke-width:1.28834605;stroke-opacity:1" />
  <path
     id="separacion"
     topico="/PM/Brewery/Separacion"
     d="m 339.28546,145.53995 a 49.678183,23.672888 0 0 0 -49.6791,23.6734 49.678183,23.672888 0 0 0 0.39687,2.74515 c -0.1018,0.1009 -0.16821,0.20197 -0.16617,0.30326 l 2.18571,108.74315 c 0.0416,2.07179 22.19912,3.37789 49.68105,2.92837 27.48192,-0.44952 49.57214,-2.48029 49.53051,-4.55209 l -2.18377,-108.74157 c -0.002,-0.1096 -0.0798,-0.21704 -0.20331,-0.32221 a 49.678183,23.672888 0 0 0 0.11534,-1.10406 49.678183,23.672888 0 0 0 -49.67713,-23.6734 z"
     style="opacity:1;fill:#575764;fill-opacity:1;stroke:#00e300;stroke-width:0.88518989;stroke-opacity:1" />
  <rect
     style="opacity:1;fill:#575764;fill-opacity:1;stroke:#00e300;stroke-width:0.91079354;stroke-opacity:1"
     id="clarificacion"
     topico="/PM/Brewery/Clarificacion"
     width="91.517784"
     height="108.66063"
     x="608.32471"
     y="451.87457"
     rx="151.98491"
     ry="26.341972" />
  <rect
     ry="0"
     rx="67.556824"
     y="229.42778"
     x="31.217316"
     height="54.484829"
     width="69.066231"
     id="molienda"
     topico="/PM/Brewery/Molienda"
     style="opacity:1;fill:#575764;fill-opacity:1;stroke:#00e300;stroke-width:0.7650916;stroke-opacity:1" />
  <path
     id="malta"
     topico="/PM/Brewery/Malta"
     d="m 64.105997,227.24839 c -33.98497,-41.40846 -33.98497,-43.58785 -32.88868,-42.49816 1.096289,1.0897 69.066233,-1.08969 69.066233,-1.08969 z"
     style="fill:none;fill-rule:evenodd;stroke:#000000;stroke-width:0.7650916px;stroke-linecap:butt;stroke-linejoin:miter;stroke-opacity:1" />
  <rect
     rx="15.714296"
     y="489.61057"
     x="487.93915"
     height="60.000027"
     width="75.71431"
     id="enfriamiento"
     topico="/PM/Brewery/Enfriamiento"
     style="opacity:1;fill:#000000;fill-opacity:1;stroke:#00e300;stroke-opacity:1" />
  <path
     id="path3404"
     d="m 66.851102,285.24155 -0.84506,52.4556"
     style="fill:none;fill-rule:evenodd;stroke:#000000;stroke-width:1.53758454px;stroke-linecap:butt;stroke-linejoin:miter;stroke-opacity:1" />
  <path
     id="path3416"
     d="m 65,337.71935 54.64286,-0.71429"
     style="fill:none;fill-rule:evenodd;stroke:#000000;stroke-width:1px;stroke-linecap:butt;stroke-linejoin:miter;stroke-opacity:1" />
  <path
     id="path3418"
     d="m 120,336.29078 0.71429,-206.42858 50,0"
     style="fill:none;fill-rule:evenodd;stroke:#000000;stroke-width:1px;stroke-linecap:butt;stroke-linejoin:miter;stroke-opacity:1" />
  <path
     id="path3420"
     d="m 171.07143,129.8622 0,15.71429"
     style="fill:none;fill-rule:evenodd;stroke:#000000;stroke-width:1px;stroke-linecap:butt;stroke-linejoin:miter;stroke-opacity:1" />
  <path
     id="path3426"
     d="M 202.14286,301.29078 202.5,329.50506"
     style="fill:none;fill-rule:evenodd;stroke:#000000;stroke-width:1px;stroke-linecap:butt;stroke-linejoin:miter;stroke-opacity:1" />
  <path
     id="path3428"
     d="m 201.78571,329.50506 74.64286,0 0.35714,-58.21428 12.5,0.35714"
     style="fill:none;fill-rule:evenodd;stroke:#000000;stroke-width:1px;stroke-linecap:butt;stroke-linejoin:miter;stroke-opacity:1" />
  <path
     id="path3430"
     d="m 347.14286,284.8622 -0.35715,42.85715 57.5,-0.35715 -0.71428,-185.35714"
     style="fill:none;fill-rule:evenodd;stroke:#000000;stroke-width:1px;stroke-linecap:butt;stroke-linejoin:miter;stroke-opacity:1" />
  <path
     id="path3436"
     d="m 403.57143,142.3622 -0.35714,-37.14285 243.21428,0.35714"
     style="fill:none;fill-rule:evenodd;stroke:#000000;stroke-width:1px;stroke-linecap:butt;stroke-linejoin:miter;stroke-opacity:1" />
  <path
     id="path3438"
     d="m 647.5,105.57649 c 4.40476,0 8.80952,0 13.21429,0 6.78571,0 13.57142,0 20.35714,0 2.97619,0 5.95238,0 8.92857,0 1.30952,0 2.61905,0 3.92857,0 0.71429,0 1.42857,0 2.14286,0 0.11905,0 0.35714,-0.11905 0.35714,0 0,0.11905 -0.23809,0 -0.35714,0 l 0.35714,49.64286"
     style="fill:none;fill-rule:evenodd;stroke:#000000;stroke-width:1px;stroke-linecap:butt;stroke-linejoin:miter;stroke-opacity:1" />
  <path
     id="path3442"
     d="m 482.14286,299.8622 0.35714,27.85715 -64.28571,-0.35715 -3.57143,0 -0.71429,-197.5 -5.71428,0"
     style="fill:none;fill-rule:evenodd;stroke:#000000;stroke-width:1px;stroke-linecap:butt;stroke-linejoin:miter;stroke-opacity:1" />
  <path
     id="path3444"
     d="m 396.78571,129.8622 -32.5,0 0,17.85715"
     style="fill:none;fill-rule:evenodd;stroke:#000000;stroke-width:1px;stroke-linecap:butt;stroke-linejoin:miter;stroke-opacity:1" />
  <path
     id="path3446"
     d="m 687.91388,287.67673 42.42641,0 -2.02031,237.38585 -23.2335,0 -3.65791,0.15677"
     style="fill:none;fill-rule:evenodd;stroke:#000000;stroke-width:1px;stroke-linecap:butt;stroke-linejoin:miter;stroke-opacity:1" />
  <path
     id="path3448"
     d="m 607.5,529.8622 -42.5,0"
     style="fill:none;fill-rule:evenodd;stroke:#000000;stroke-width:1px;stroke-linecap:butt;stroke-linejoin:miter;stroke-opacity:1" />
  <path
     id="path3460"
     d="m 486.68384,529.67899 -39.46085,0 0,63.6912 -22.84576,-0.69229"
     style="fill:none;fill-rule:evenodd;stroke:#000000;stroke-width:1px;stroke-linecap:butt;stroke-linejoin:miter;stroke-opacity:1" />
  <rect
     rx="15.7143"
     y="823.9046"
     x="27.691826"
     height="146.07439"
     width="125.30551"
     id="embotellado"
     topico="/PM/Brewery/Embotellado"
     style="opacity:1;fill:#575764;fill-opacity:1;stroke:#00e300;stroke-opacity:1" />
  <path
     id="path3464"
     d="m 20.768869,591.2933 -16.6150951,0 0.6922956,304.61009 22.1534605,0"
     style="fill:none;fill-rule:evenodd;stroke:#000000;stroke-width:1px;stroke-linecap:butt;stroke-linejoin:miter;stroke-opacity:1" />
  <path
     id="path3490"
     d="m 65.179964,337.49192 c 0.09079,-0.32514 0.351973,-12.18377 0.580397,-26.35252 l 0.415318,-25.76135 0.685399,0 0.6854,0 -0.152869,7.64885 c -0.266098,13.31442 -0.738908,44.1151 -0.678556,44.20387 0.07316,0.10761 44.809657,-0.40804 49.350067,-0.56883 3.13368,-0.11097 3.3655,-0.0885 3.3655,0.32579 0,0.48858 3.53804,0.40743 -40.608667,0.93146 l -13.807068,0.16389 0.165079,-0.59116 z"
     style="opacity:1;fill:#ff0000;fill-opacity:1;stroke:#00e300;stroke-width:0.24476348;stroke-opacity:1" />
  <path
     id="path3492"
     d="m 119.76016,291.4539 c 0.43859,-124.49305 0.45526,-126.98873 0.8484,-126.98873 0.32559,0 0.34887,5.7134 0.20618,50.61101 -0.34056,107.16149 -0.44419,122.06907 -0.8485,122.06907 -0.32556,0 -0.34885,-5.16526 -0.20608,-45.69135 z"
     style="opacity:1;fill:#ff0000;fill-opacity:1;stroke:#00e300;stroke-width:0.24531691;stroke-opacity:1" />
  <path
     id="path3494"
     d="m 120.19073,157.02205 c -0.0121,-5.01459 0.0146,-13.28913 0.0593,-18.38786 l 0.0812,-9.27041 25.19051,0 25.1905,0 0,0.30595 c 0,0.26808 0.053,0.30596 0.42834,0.30596 l 0.42834,0 0,7.77124 0,7.77124 -0.48953,0 -0.48953,0 0,-7.58767 0,-7.58767 -24.72111,0 -24.72111,0 -7e-5,6.21087 c -8e-5,7.23511 -0.16845,29.87381 -0.21548,28.97388 -0.0454,-0.86878 -0.13012,-1.16263 -0.33517,-1.16263 -0.20255,0 -0.28524,0.27969 -0.3437,1.16263 -0.0223,0.33655 -0.0504,-3.49094 -0.0625,-8.50553 z"
     style="opacity:1;fill:#ff0000;fill-opacity:1;stroke:#00e300;stroke-width:0.12238174;stroke-opacity:1" />
  <path
     id="path3496"
     d="m 121.07154,165.34401 c 0,-0.77407 0.0199,-1.09073 0.0442,-0.7037 0.0243,0.38703 0.0243,1.02036 0,1.40739 -0.0243,0.38703 -0.0442,0.0704 -0.0442,-0.70369 z"
     style="opacity:1;fill:#ff0000;fill-opacity:1;stroke:#00e300;stroke-width:0.12238174;stroke-opacity:1" />
  <path
     id="path3498"
     d="m 120.79269,165.19825 c 0.007,-0.29004 0.0563,-0.66502 0.11019,-0.8333 0.073,-0.22805 0.10109,-0.11303 0.11018,0.45171 0.007,0.41672 -0.0429,0.7917 -0.11018,0.8333 -0.075,0.0463 -0.11766,-0.12861 -0.11019,-0.45171 z"
     style="opacity:1;fill:#ff0000;fill-opacity:1;stroke:#00e300;stroke-width:0.12238174;stroke-opacity:1" />
  <path
     id="path3504"
     d="m 201.86192,329.54743 c 0,-0.22212 0.0435,-0.45618 0.0966,-0.52012 0.0531,-0.0639 0.0308,-4.93504 -0.0496,-10.82467 -0.0804,-5.88962 -0.15138,-12.09896 -0.15775,-13.79854 l -0.0116,-3.09014 0.42834,0 0.42833,0 0.004,1.31561 c 0.003,1.13349 0.3453,26.3507 0.35844,26.43445 0.003,0.0168 16.44373,0.0306 36.53575,0.0306 l 36.53095,0 0.009,-5.84373 c 0.0186,-12.49082 0.30894,-52.27889 0.38203,-52.35197 0.0713,-0.0713 6.38755,0.0793 10.89898,0.25988 l 1.92751,0.0771 0,0.4144 0,0.41439 -1.00965,-0.01 c -0.5553,-0.005 -3.24005,-0.0774 -5.96611,-0.16008 -2.72605,-0.0826 -4.97346,-0.13922 -4.99424,-0.12575 -0.0352,0.0228 -0.38057,49.45601 -0.38744,55.45923 l -0.003,2.72299 -37.51,0 -37.51001,0 0,-0.40386 z"
     style="opacity:1;fill:#ff6600;fill-opacity:1;stroke:#00e300;stroke-width:0.12238174;stroke-opacity:1" />
  <path
     id="path3506"
     d="m 346.39166,325.59614 c -0.002,-1.40768 0.064,-11.13685 0.14605,-21.62037 l 0.14914,-19.06096 0.47376,0 0.47376,0 -0.071,4.13039 c -0.12033,6.99936 -0.34114,38.10291 -0.271,38.17305 0.0364,0.0364 9.25282,0.005 20.48095,-0.0699 11.22814,-0.0749 22.63144,-0.13566 25.34066,-0.13514 l 4.92587,9.5e-4 0,0.40837 0,0.40837 -11.16734,0.0808 c -6.14203,0.0444 -17.76217,0.1175 -25.82254,0.16234 l -14.65522,0.0815 -0.003,-2.55941 z"
     style="opacity:1;fill:#ffff00;fill-opacity:1;stroke:#00e300;stroke-width:0.12238174;stroke-opacity:1" />
  <path
     id="path3508"
     d="m 398.14733,327.47495 0,-0.42454 1.00965,-0.0786 c 0.5553,-0.0432 1.83572,-0.0789 2.84537,-0.0793 l 1.83573,-7.3e-4 -0.0268,-6.51688 c -0.16801,-40.87426 -0.2811,-72.26081 -0.28023,-77.77359 l 0.001,-6.76159 0.42834,0 0.42833,0 0.004,4.61991 c 0.002,2.54095 0.0806,23.20615 0.17445,45.92267 0.0938,22.71652 0.14396,41.32941 0.1114,41.36197 -0.0326,0.0326 -1.51539,0.0808 -3.29518,0.1072 l -3.23597,0.048 0,-0.42454 z"
     style="opacity:1;fill:#ffff00;fill-opacity:1;stroke:#00e300;stroke-width:0.12238174;stroke-opacity:1" />
  <path
     id="path3510"
     d="m 403.4883,231.15863 c -0.0398,-2.50729 -0.12931,-22.29183 -0.19888,-43.96563 -0.0696,-21.67381 -0.16221,-43.82643 -0.20587,-49.22806 l -0.0794,-9.82113 0.43071,0 0.43071,0 0.0807,7.98541 c 0.0444,4.39197 0.13275,22.41421 0.19638,40.04942 0.0636,17.63521 0.15035,38.24582 0.19274,45.80136 l 0.0771,13.73735 -0.42589,0 -0.4259,0 -0.0724,-4.55872 z"
     style="opacity:1;fill:#ffff00;fill-opacity:1;stroke:#00e300;stroke-width:0.12238174;stroke-opacity:1" />
  <path
     id="path3512"
     d="m 402.99507,127.13416 c -0.0376,-0.488 -0.10264,-5.71982 -0.14447,-11.62627 l -0.0761,-10.73899 16.26826,0 c 8.94754,0 19.41642,0.0365 23.26418,0.0812 l 6.99591,0.0812 0,0.42847 0,0.42848 -22.83395,-0.0841 -22.83396,-0.0841 0.0716,6.58071 c 0.0394,3.61939 0.10333,8.65967 0.14208,11.20062 l 0.0705,4.61992 -0.42783,0 -0.42783,0 -0.0684,-0.88727 z"
     style="opacity:1;fill:#ffff00;fill-opacity:1;stroke:#00e300;stroke-width:0.12238174;stroke-opacity:1" />
  <path
     id="path3514"
     d="m 477.75223,105.77855 -28.30078,-0.0311 0,-0.42808 0,-0.42807 31.17675,5e-5 c 17.14721,2e-5 38.90056,0.0367 48.34078,0.0814 l 17.16404,0.0814 0,0.40809 0,0.40808 -20.04001,-0.0303 c -11.022,-0.0167 -32.77536,-0.0443 -48.34078,-0.0615 z"
     style="opacity:1;fill:#ffff00;fill-opacity:1;stroke:#00e300;stroke-width:0.12238174;stroke-opacity:1" />
  <path
     id="path3516"
     d="m 566.44678,105.90093 -20.22358,-0.0313 0,-0.42798 0,-0.42797 20.22358,3e-5 c 11.12297,1e-5 33.64733,0.0367 50.05413,0.0815 l 29.83055,0.0815 0,0.40802 0,0.40802 -29.83055,-0.0302 c -16.4068,-0.0166 -38.93116,-0.0443 -50.05413,-0.0615 z"
     style="opacity:1;fill:#ffff00;fill-opacity:1;stroke:#00e300;stroke-width:0.12238174;stroke-opacity:1" />
  <path
     id="path3518"
     d="m 646.05319,105.49471 1.83572,0"
     style="fill:#ffff00;fill-rule:evenodd;stroke:#000000;stroke-width:1px;stroke-linecap:butt;stroke-linejoin:miter;stroke-opacity:1;fill-opacity:1" />
  <path
     id="path4320"
     d="m 695.94765,153.05365 c -0.003,-4.17514 -0.33825,-46.99045 -0.36804,-47.02024 -0.0168,-0.0168 -11.15572,-0.0331 -24.75312,-0.0362 l -24.72256,-0.006 0,-0.45055 -10e-6,-0.45055 25.2039,0.023 c 13.86214,0.0127 25.27204,0.0445 25.35533,0.0707 0.23606,0.0744 0.24216,0.59965 0.009,0.77018 -0.12887,0.0942 -0.12888,1.70779 -7e-5,20.43132 0.0769,11.18095 0.16446,22.22741 0.19452,24.54768 l 0.0547,4.21868 -0.48599,0 -0.48599,0 -0.002,-2.09852 0,0 z"
     style="opacity:1;fill:#ffff00;fill-opacity:1;stroke:#00e300;stroke-width:0.08653696;stroke-opacity:1" />
  <path
     id="path3390"
     d="m 449.70836,327.97748 c -6.83197,-0.0441 -17.60476,-0.0881 -23.93955,-0.098 l -11.5178,-0.0178 -0.0776,-11.53448 c -0.0427,-6.34397 -0.10542,-22.46623 -0.13943,-35.82726 -0.034,-13.36102 -0.0951,-27.83113 -0.13583,-32.1558 l -0.074,-7.86302 0.48301,0 0.48301,0 0.0811,27.07696 c 0.0446,14.89232 0.11732,34.32612 0.16161,43.18622 l 0.0805,16.10926 8.33299,0.0771 c 15.94111,0.14756 58.45808,0.35011 58.52936,0.27882 0.0756,-0.0756 -0.16305,-23.67621 -0.26228,-25.93528 l -0.0578,-1.3156 0.48666,0 0.48666,0 -4.9e-4,2.04989 c -4.9e-4,2.1561 0.20752,19.21293 0.28733,23.55849 l 0.0466,2.53942 -10.41621,-0.0244 c -5.7289,-0.0134 -16.00598,-0.0605 -22.83794,-0.10454 z"
     style="opacity:1;fill:#000080;fill-opacity:1;stroke:#00e300;stroke-width:0.12238173;stroke-opacity:1" />
  <path
     id="path3392"
     d="m 413.80753,217.198 c -0.0439,-12.73841 -0.11554,-30.33384 -0.1592,-39.10096 l -0.0794,-15.94022 0.42889,0 0.4289,0 0.0787,8.6585 c 0.0433,4.76218 0.10751,21.93081 0.14276,38.15251 0.0353,16.2217 0.0943,29.9208 0.13116,30.44246 l 0.067,0.94846 -0.47952,0 -0.47951,0 -0.0798,-23.16075 z"
     style="opacity:1;fill:#000080;fill-opacity:1;stroke:#00e300;stroke-width:0.12238173;stroke-opacity:1" />
  <path
     id="path3394"
     d="m 413.56481,150.37758 c -0.0447,-6.41128 -0.0813,-13.54307 -0.0814,-15.84844 l -7e-5,-4.19157 -2.63121,0 -2.6312,0 0,-0.48953 0,-0.48953 3.03952,0 3.03953,0 0.0811,6.51683 c 0.0446,3.58425 0.0811,10.93634 0.0812,16.33796 l 1.3e-4,9.82114 -0.40816,0 -0.40815,0 -0.0813,-11.65686 z"
     style="opacity:1;fill:#000080;fill-opacity:1;stroke:#00e300;stroke-width:0.12238173;stroke-opacity:1" />
  <path
     id="path3396"
     d="m 363.88789,138.53714 0,-9.17863 16.39915,0 16.39915,0 0,0.48953 0,0.48953 -15.97082,0 -15.97081,0 0,8.6891 0,8.6891 -0.42834,0 -0.42833,0 0,-9.17863 z"
     style="opacity:1;fill:#008080;fill-opacity:1;stroke:#00e300;stroke-width:0.12238173;stroke-opacity:1" />
  <path
     id="path3398"
     d="m 729.56105,325.9149 c -4.3e-4,-1.85056 0.24114,-30.85573 0.28976,-34.78785 l 0.0367,-2.9639 -20.97516,0 -20.97517,0 0,-0.47595 0,-0.47595 21.4179,0 21.4179,0 0.003,1.23315 c 0.007,3.32152 -0.27616,37.2619 -0.31773,38.03299 l -0.0478,0.887 -0.42436,0 -0.42436,0 -3.4e-4,-1.44949 -2e-5,0 z"
     style="opacity:1;fill:#008080;fill-opacity:1;stroke:#00e300;stroke-width:0.08653695;stroke-opacity:1" />
  <path
     id="path3400"
     d="m 729.08711,380.26011 c 0.0254,-1.36837 0.12312,-12.55435 0.21715,-24.85774 0.094,-12.30339 0.19485,-23.62567 0.22405,-25.16062 l 0.0531,-2.79082 0.42269,0 0.42269,0 -10e-4,2.53121 c -5.5e-4,1.39216 -0.0974,13.53221 -0.21527,26.97789 -0.11785,13.44568 -0.21475,24.74849 -0.21534,25.11735 l -10e-4,0.67067 -0.47658,0 -0.47658,0 0.0462,-2.48794 z"
     style="opacity:1;fill:#008080;fill-opacity:1;stroke:#00e300;stroke-width:0.08653695;stroke-opacity:1" />
  <path
     id="path3402"
     d="m 728.82967,410.37497 c 0.0642,-4.92968 0.21288,-22.62206 0.21268,-25.31206 l -1.6e-4,-2.22833 0.47595,0 0.47595,0 -0.002,0.6274 c -10e-4,0.34506 -0.0586,6.74122 -0.12787,14.21369 -0.0692,7.47247 -0.12674,14.18016 -0.1278,14.90599 l -0.002,1.31969 -0.47538,0 -0.47538,0 0.0459,-3.52638 z"
     style="opacity:1;fill:#008080;fill-opacity:1;stroke:#00e300;stroke-width:0.08653695;stroke-opacity:1" />
  <path
     id="path3405"
     d="m 728.56715,441.09559 c 0.0669,-5.34113 0.21543,-22.66402 0.21543,-25.12777 l 0,-1.97993 0.47595,0 0.47595,0 -0.002,0.28124 c -10e-4,0.15469 -0.0586,6.39508 -0.1278,13.86755 -0.0692,7.47246 -0.12678,14.33593 -0.12788,15.25214 l -0.002,1.66583 -0.47866,0 -0.47866,0 0.0496,-3.95906 z"
     style="opacity:1;fill:#008080;fill-opacity:1;stroke:#00e300;stroke-width:0.08653695;stroke-opacity:1" />
  <path
     id="path3407"
     d="m 729.49962,446.82866 c 6.5e-4,-0.23798 0.0175,-0.32506 0.0373,-0.19352 0.0199,0.13154 0.0194,0.32625 -10e-4,0.43269 -0.0205,0.10643 -0.0368,-0.001 -0.0362,-0.23917 z"
     style="opacity:1;fill:#008080;fill-opacity:1;stroke:#00e300;stroke-width:0.08653695;stroke-opacity:1" />
  <path
     id="path3409"
     d="m 728.30478,471.81621 c 0.068,-5.64644 0.21786,-22.83858 0.21804,-25.00918 l 1.4e-4,-1.66584 0.47568,0 0.47568,0 -0.0459,4.17541 c -0.072,6.54166 -0.21313,23.19146 -0.21313,25.13546 l 0,1.7559 -0.48167,0 -0.48167,0 0.0529,-4.39175 z"
     style="opacity:1;fill:#008080;fill-opacity:1;stroke:#00e300;stroke-width:0.08653695;stroke-opacity:1" />
  <path
     id="path3411"
     d="m 728.00232,508.85402 c 10e-4,-1.08279 0.0586,-8.08255 0.12788,-15.55501 0.0692,-7.47247 0.12674,-14.3554 0.1278,-15.29541 l 0.002,-1.70911 0.48746,0 0.48746,0 -0.0546,2.92063 c -0.03,1.60634 -0.095,8.97604 -0.14442,16.37711 -0.0494,7.40108 -0.11167,13.85565 -0.13833,14.3435 l -0.0485,0.88701 -0.42436,0 -0.42436,0 0.002,-1.96872 z"
     style="opacity:1;fill:#008080;fill-opacity:1;stroke:#00e300;stroke-width:0.08653695;stroke-opacity:1" />
  <path
     id="path3413"
     d="m 701.49005,525.52016 c -0.0298,-0.11137 -0.0547,-0.32585 -0.0554,-0.47663 l -0.001,-0.27414 0.62739,-0.0528 c 0.34506,-0.0291 6.27828,-0.0738 13.18492,-0.0996 l 12.55753,-0.0467 0.0546,-0.57822 c 0.03,-0.31802 0.0549,-2.45085 0.0552,-4.73962 3.4e-4,-2.28877 0.0263,-5.1023 0.0577,-6.25229 l 0.0571,-2.0909 0.41885,0 0.41884,0 -9e-5,3.2235 c -5e-5,1.77292 -0.0258,5.06098 -0.0573,7.30678 l -0.0572,4.08328 -13.37755,0.0368 c -7.35765,0.0202 -13.47918,0.0652 -13.6034,0.0999 -0.18996,0.0531 -0.23447,0.031 -0.28007,-0.13934 l -1e-5,0 z"
     style="opacity:1;fill:#008080;fill-opacity:1;stroke:#00e300;stroke-width:0.08653695;stroke-opacity:1" />
  <path
     id="path3415"
     d="m 565.01586,529.82124 0,-0.42833 21.23323,0 21.23323,0 0,0.42833 0,0.42834 -21.23323,0 -21.23323,0 0,-0.42834 z"
     style="opacity:1;fill:#99ff55;fill-opacity:1;stroke:#00e300;stroke-width:0.12238173;stroke-opacity:1" />
  <path
     id="path3417"
     d="m 436.9136,593.44804 c -4.98094,-0.16919 -9.79972,-0.31789 -10.70841,-0.33045 -1.36644,-0.0189 -1.65215,-0.093 -1.65215,-0.42878 0,-0.37 0.43916,-0.39184 4.95646,-0.24651 2.72605,0.0877 7.73759,0.23294 11.13674,0.32275 l 6.18028,0.1633 0,-31.85842 0,-31.85842 19.82584,0 c 17.42428,0 19.82584,0.0443 19.82584,0.36567 0,0.32078 -2.38117,0.37336 -19.39751,0.42833 l -19.3975,0.0627 -0.0621,31.88044 -0.0621,31.88044 -0.79457,-0.0367 c -0.43701,-0.0202 -4.86988,-0.17513 -9.85081,-0.34432 z"
     style="opacity:1;fill:#ffcc00;fill-opacity:1;stroke:#00e300;stroke-width:0.24476346;stroke-opacity:1" />
  <path
     id="path3421"
     d="M 3.9295278,669.86276 C 3.8681177,645.08939 3.8000631,617.16823 3.7782955,607.81573 l -0.039578,-17.00455 8.4373535,3e-5 8.437353,4e-5 0,0.43268 0,0.43269 -8.055298,0 -8.0552993,0 0.093609,17.00451 c 0.051485,9.35248 0.1361851,37.07892 0.188222,61.61431 l 0.094613,44.6098 -0.4190443,0 -0.4190444,0 -0.1116547,-45.04248 z"
     style="opacity:1;fill:#ffcc00;fill-opacity:1;stroke:#00e300;stroke-width:0.1730739;stroke-opacity:1" />
  <path
     id="path3423"
     d="M 4.2822611,822.1678 C 4.2245739,805.00968 4.1319424,773.89532 4.0764132,753.02477 l -0.1009621,-37.94646 0.4227121,0 0.4227121,0 0.1047826,42.0137 c 0.057631,23.10753 0.1479579,54.22189 0.2007277,69.14302 l 0.095945,27.12934 -0.4175919,0 -0.4175919,0 L 4.282261,822.1678 Z"
     style="opacity:1;fill:#ffcc00;fill-opacity:1;stroke:#00e300;stroke-width:0.1730739;stroke-opacity:1" />
  <path
     id="path3425"
     d="m 4.3444766,874.91207 0,-21.37463 0.4326848,0 0.4326847,0 0,20.94194 0,20.94195 10.8171189,0 10.81712,0 0,0.43268 0,0.43269 -11.249804,0 -11.2498044,0 0,-21.37463 z"
     style="opacity:1;fill:#ffcc00;fill-opacity:1;stroke:#00e300;stroke-width:0.1730739;stroke-opacity:1" />
  <text
     transform="scale(0.67992456,1.4707514)"
     id="text3427"
     y="54.997433"
     x="90.059639"
     style="font-style:normal;font-weight:normal;font-size:19.96103287px;line-height:125%;font-family:sans-serif;text-align:center;letter-spacing:0px;word-spacing:0px;writing-mode:lr-tb;text-anchor:middle;fill:#000000;fill-opacity:1;stroke:none;stroke-width:1px;stroke-linecap:butt;stroke-linejoin:miter;stroke-opacity:1"
     xml:space="preserve"><tspan
       y="54.997433"
       x="93.23703"
       id="tspan3429">Molienda de </tspan><tspan
       id="tspan3431"
       y="79.94873"
       x="90.059639">la malta</tspan></text>
  <text
     transform="scale(0.83818333,1.1930564)"
     id="text3433"
     y="73.08474"
     x="161.29086"
     style="font-style:normal;font-weight:normal;font-size:22.92390442px;line-height:125%;font-family:sans-serif;letter-spacing:0px;word-spacing:0px;fill:#000000;fill-opacity:1;stroke:none;stroke-width:1px;stroke-linecap:butt;stroke-linejoin:miter;stroke-opacity:1"
     xml:space="preserve"><tspan
       y="73.08474"
       x="161.29086"
       id="tspan3435">Maceracion</tspan></text>
  <text
     transform="scale(0.77207485,1.2952112)"
     id="text3437"
     y="61.572762"
     x="766.35864"
     style="font-style:normal;font-weight:normal;font-size:21.51010323px;line-height:125%;font-family:sans-serif;letter-spacing:0px;word-spacing:0px;fill:#000000;fill-opacity:1;stroke:none;stroke-width:1px;stroke-linecap:butt;stroke-linejoin:miter;stroke-opacity:1"
     xml:space="preserve"><tspan
       y="61.572762"
       x="766.35864"
       id="tspan3439">Lupulizacion</tspan></text>
  <text
     transform="scale(0.76018659,1.3154665)"
     id="text3441"
     y="59.674335"
     x="365.43436"
     style="font-style:normal;font-weight:normal;font-size:18.59155655px;line-height:125%;font-family:sans-serif;letter-spacing:0px;word-spacing:0px;fill:#000000;fill-opacity:1;stroke:none;stroke-width:1px;stroke-linecap:butt;stroke-linejoin:miter;stroke-opacity:1"
     xml:space="preserve"><tspan
       y="59.674335"
       x="365.43436"
       id="tspan3443">Separación y agotamiento del Bazago</tspan></text>
  <text
     transform="scale(0.87039072,1.1489093)"
     id="text3445"
     y="363.95407"
     x="685.27271"
     style="font-style:normal;font-weight:normal;font-size:21.60258675px;line-height:125%;font-family:sans-serif;letter-spacing:0px;word-spacing:0px;fill:#000000;fill-opacity:1;stroke:none;stroke-width:1px;stroke-linecap:butt;stroke-linejoin:miter;stroke-opacity:1"
     xml:space="preserve"><tspan
       y="363.95407"
       x="685.27271"
       id="tspan3447">Clarificacion</tspan></text>
  <text
     transform="scale(0.82541731,1.2115084)"
     id="text3449"
     y="345.14847"
     x="574.46106"
     style="font-style:normal;font-weight:normal;font-size:20.4863739px;line-height:125%;font-family:sans-serif;letter-spacing:0px;word-spacing:0px;fill:#000000;fill-opacity:1;stroke:none;stroke-width:1px;stroke-linecap:butt;stroke-linejoin:miter;stroke-opacity:1"
     xml:space="preserve"><tspan
       y="345.14847"
       x="574.46106"
       id="tspan3451">Enfriamiento</tspan></text>
  <g
     id="g3427">
    <path
       style="opacity:1;fill:#575764;fill-opacity:1;stroke:#00e300;stroke-width:0.98385727;stroke-opacity:1"
       d="m 370.23868,431.2085 a 49.629951,29.27281 0 0 0 -49.63086,29.27344 49.629951,29.27281 0 0 0 0.39648,3.39453 c -0.1017,0.12477 -0.16805,0.24975 -0.16601,0.375 l 2.18359,134.4668 c 0.003,0.18454 0.13336,0.36285 0.35938,0.53711 l -0.8418,0.92968 48.16211,52.38672 49.27539,-54.45312 c 1.40682,-0.45953 2.16787,-0.93304 2.16015,-1.40821 l -0.0156,-0.96093 1.11133,-1.22852 -1.15235,-1.25195 -2.125,-131.02344 c -0.002,-0.13553 -0.0797,-0.26839 -0.20312,-0.39844 a 49.629951,29.27281 0 0 0 0.11523,-1.36523 49.629951,29.27281 0 0 0 -49.6289,-29.27344 z"
       id="fermentacion1"
       topico="/PM/Brewery/fermentacion1" />
    <path
       id="fermentacion2"
       topico="/PM/Brewery/maduracion"
       d="m 70.269804,428.75039 a 49.629951,29.27281 0 0 0 -49.63086,29.27344 49.629951,29.27281 0 0 0 0.39648,3.39453 c -0.1017,0.12477 -0.16805,0.24975 -0.16601,0.375 l 2.18359,134.4668 c 0.003,0.18454 0.13336,0.36285 0.35938,0.53711 l -0.8418,0.92968 48.16211,52.38672 49.275386,-54.45312 c 1.40682,-0.45953 2.16787,-0.93304 2.16015,-1.40821 l -0.0156,-0.96093 1.11133,-1.22852 -1.15235,-1.25195 -2.125,-131.02344 c -0.002,-0.13553 -0.0797,-0.26839 -0.20312,-0.39844 a 49.629951,29.27281 0 0 0 0.11523,-1.36523 49.629951,29.27281 0 0 0 -49.628896,-29.27344 z"
       style="opacity:1;fill:#575764;fill-opacity:1;stroke:#00e300;stroke-width:0.98385727;stroke-opacity:1" />
    <path
       style="opacity:1;fill:#575764;fill-opacity:1;stroke:#00e300;stroke-width:0.98385727;stroke-opacity:1"
       d="m 212.32597,427.94815 a 49.629951,29.27281 0 0 0 -49.63086,29.27344 49.629951,29.27281 0 0 0 0.39648,3.39453 c -0.1017,0.12477 -0.16805,0.24975 -0.16601,0.375 l 2.18359,134.4668 c 0.003,0.18454 0.13336,0.36285 0.35938,0.53711 l -0.8418,0.92968 48.16211,52.38672 49.27539,-54.45312 c 1.40682,-0.45953 2.16787,-0.93304 2.16015,-1.40821 l -0.0156,-0.96093 1.11133,-1.22852 -1.15235,-1.25195 -2.125,-131.02344 c -0.002,-0.13553 -0.0797,-0.26839 -0.20312,-0.39844 a 49.629951,29.27281 0 0 0 0.11523,-1.36523 49.629951,29.27281 0 0 0 -49.6289,-29.27344 z"
       id="maduracion"
       topico="/PM/Brewery/fermentacion2" />
    <path
       style="fill:none;fill-rule:evenodd;stroke:#000000;stroke-width:0.97301537px;stroke-linecap:butt;stroke-linejoin:miter;stroke-opacity:1"
       d="M 450.68381,682.67589 24.923306,684.06136"
       id="path3452" />
    <path
       style="fill:none;fill-rule:evenodd;stroke:#000000;stroke-width:1px;stroke-linecap:butt;stroke-linejoin:miter;stroke-opacity:1"
       d="m 69.92186,652.21532 0.692296,30.46101"
       id="path3454" />
    <path
       style="fill:none;fill-rule:evenodd;stroke:#000000;stroke-width:1px;stroke-linecap:butt;stroke-linejoin:miter;stroke-opacity:1"
       d="m 213.22706,652.21532 0.69229,31.8456"
       id="path3456" />
    <path
       style="fill:none;fill-rule:evenodd;stroke:#000000;stroke-width:1px;stroke-linecap:butt;stroke-linejoin:miter;stroke-opacity:1"
       d="m 369.68588,654.9845 0.69229,27.69183"
       id="path3458" />
   <text
       xml:space="preserve"
       style="font-style:normal;font-weight:normal;font-size:30.14647865px;line-height:125%;font-family:sans-serif;letter-spacing:0px;word-spacing:0px;fill:#000000;fill-opacity:1;stroke:none;stroke-width:1px;stroke-linecap:butt;stroke-linejoin:miter;stroke-opacity:1"
       x="158.70566"
       y="450.08218"
       id="text3453"
       transform="scale(1.1022675,0.90722078)"><tspan
         id="tspan3455"
         x="158.70566"
         y="450.08218">Fermentacion</tspan></text>
    <text
       xml:space="preserve"
       style="font-style:normal;font-weight:normal;font-size:22.94428635px;line-height:125%;font-family:sans-serif;letter-spacing:0px;word-spacing:0px;fill:#000000;fill-opacity:1;stroke:none;stroke-width:1px;stroke-linecap:butt;stroke-linejoin:miter;stroke-opacity:1"
       x="18.766068"
       y="344.1973"
       id="text3457"
       transform="scale(0.83892856,1.1919966)"><tspan
         id="tspan3459"
         x="18.766068"
         y="344.1973">Maduracion</tspan></text>
  </g>
  <text
     transform="scale(0.85759873,1.1660465)"
     id="text3461"
     y="681.02515"
     x="41.303787"
     style="font-style:normal;font-weight:normal;font-size:21.28509712px;line-height:125%;font-family:sans-serif;letter-spacing:0px;word-spacing:0px;fill:#000000;fill-opacity:1;stroke:none;stroke-width:1px;stroke-linecap:butt;stroke-linejoin:miter;stroke-opacity:1"
     xml:space="preserve"><tspan
       y="681.02515"
       x="41.303787"
       id="tspan3463">Embotellado</tspan></text>
  </svg>
